<?xml version="1.0" encoding="utf-8"?>
<!-- Generator: Adobe Illustrator 24.3.0, SVG Export Plug-In . SVG Version: 6.00 Build 0)  -->
<svg version="1.1" id="Layer_1" xmlns="http://www.w3.org/2000/svg" xmlns:xlink="http://www.w3.org/1999/xlink" x="0px" y="0px"
	 viewBox="0 0 327.22 297.061" style="enable-background:new 0 0 327.22 297.061;" xml:space="preserve">
<style type="text/css">
	.st0{fill:#00FFAE;}
	.st1{fill:#FFFFFF;}
</style>
<path class="st0" d="M163.172,73.642 M293.35,139.482h-0.029c-5.137-0.237-9.5,3.721-9.761,8.857v0.4
	c0.261,5.136,4.624,9.095,9.761,8.857h0.029c5.127,0.249,9.495-3.681,9.787-8.806v-0.501
	C302.847,143.163,298.478,139.232,293.35,139.482z M280.184,199.191c-4.632-2.451-10.364-1.067-13.367,3.228l-0.113,0.173
	c-2.479,3.906-1.322,9.082,2.584,11.561c0.306,0.194,0.623,0.368,0.951,0.521c1.517,0.794,3.204,1.206,4.915,1.202l0,0
	c3.384,0.058,6.568-1.594,8.469-4.395l0.139-0.221c0.192-0.303,0.363-0.619,0.514-0.944
	C286.218,206.114,284.386,201.134,280.184,199.191C280.184,199.192,280.184,199.192,280.184,199.191z M46.952,97.968
	c1.509,0.784,3.185,1.191,4.886,1.186l0,0c3.391,0.06,6.582-1.598,8.483-4.407l0.113-0.178c2.481-3.899,1.331-9.07-2.568-11.551
	c-0.313-0.199-0.638-0.377-0.974-0.533c-4.629-2.461-10.367-1.088-13.38,3.203l-0.139,0.214c-0.191,0.304-0.362,0.621-0.512,0.947
	C40.92,91.05,42.752,96.027,46.952,97.968z M98.182,58.156L98.182,58.156c1.707,0.006,3.389-0.403,4.903-1.192l0.205-0.109
	c0.327-0.15,0.644-0.322,0.948-0.514c3.918-2.462,5.097-7.634,2.635-11.552c-0.001-0.002-0.002-0.003-0.003-0.005
	c-3.003-4.295-8.734-5.681-13.367-3.232l-0.227,0.118c-0.326,0.151-0.642,0.324-0.945,0.517c-3.914,2.466-5.087,7.637-2.622,11.551
	c0.001,0.002,0.003,0.004,0.004,0.006C91.609,56.551,94.795,58.211,98.182,58.156z M163.415,41.769h0.26
	c0.607,0.063,1.22,0.063,1.827,0c4.878-0.504,8.424-4.868,7.919-9.746s-4.868-8.424-9.746-7.919h-0.26
	c-0.594-0.059-1.192-0.059-1.785,0c-4.874,0.531-8.396,4.912-7.865,9.787C154.29,38.712,158.586,42.22,163.415,41.769z
	 M266.805,94.634c1.894,2.825,5.093,4.496,8.494,4.436l0,0c1.693,0.002,3.361-0.404,4.864-1.182c0.325-0.149,0.64-0.319,0.944-0.508
	c3.928-2.449,5.126-7.618,2.678-11.546c-0.002-0.004-0.005-0.007-0.007-0.011l-0.153-0.239c-3.016-4.289-8.754-5.658-13.381-3.193
	c-0.33,0.153-0.649,0.328-0.957,0.522c-3.903,2.479-5.059,7.652-2.583,11.557L266.805,94.634z M51.978,215.777L51.978,215.777
	c1.709,0.008,3.394-0.398,4.911-1.184c0.33-0.154,0.65-0.328,0.958-0.522c3.904-2.478,5.062-7.65,2.589-11.557l-0.114-0.178
	c-3.001-4.297-8.734-5.683-13.367-3.232c-0.327,0.151-0.643,0.323-0.948,0.514c-3.917,2.461-5.098,7.632-2.636,11.549
	c0.002,0.003,0.003,0.005,0.005,0.008l0.139,0.214C45.416,214.184,48.597,215.833,51.978,215.777z M223.824,56.806l0.184,0.096
	c1.516,0.793,3.202,1.205,4.913,1.202l0,0c3.384,0.062,6.571-1.587,8.474-4.386c2.48-3.906,1.324-9.084-2.582-11.564
	c-0.305-0.193-0.622-0.367-0.949-0.52l-0.256-0.131c-4.634-2.447-10.366-1.06-13.367,3.236c-0.19,0.303-0.361,0.619-0.51,0.944
	c-1.941,4.201-0.109,9.18,4.092,11.122C223.822,56.806,223.823,56.806,223.824,56.806z M163.664,255.303h-0.253
	c-4.877-0.499-9.235,3.05-9.734,7.927c-0.061,0.595-0.062,1.195-0.002,1.791c0.489,4.878,4.839,8.437,9.717,7.948c0,0,0,0,0.001,0
	h0.279c4.878,0.502,9.24-3.046,9.742-7.924c0.502-4.878-3.046-9.24-7.924-9.742c-0.604-0.062-1.213-0.062-1.818,0H163.664z
	 M43.63,148.42c-0.504-5.406-5.295-9.379-10.701-8.875c-4.708,0.439-8.436,4.167-8.875,8.875v0.227
	c0.278,5.135,4.652,9.082,9.789,8.832l0,0c5.139,0.252,9.515-3.698,9.789-8.836L43.63,148.42z M93.489,255.509
	c1.508,0.782,3.183,1.188,4.882,1.184l0,0c3.399,0.06,6.596-1.607,8.494-4.428c0.192-0.303,0.363-0.618,0.512-0.944
	c1.939-4.202,0.105-9.18-4.097-11.12l-0.207-0.102c-4.629-2.462-10.367-1.088-13.38,3.203c-0.194,0.309-0.369,0.63-0.522,0.961
	c-1.948,4.194-0.127,9.173,4.067,11.12c0.002,0.001,0.003,0.001,0.005,0.002L93.489,255.509z M237.393,243.381
	c-3.008-4.294-8.744-5.674-13.376-3.218l-0.184,0.096c-0.325,0.149-0.64,0.319-0.944,0.508c-3.927,2.451-5.125,7.621-2.675,11.549
	c1.896,2.824,5.093,4.494,8.494,4.436l0,0c1.693,0.007,3.362-0.395,4.867-1.171l0.252-0.129c0.325-0.152,0.641-0.323,0.945-0.514
	C238.687,252.471,239.861,247.297,237.393,243.381z M204.742,8.993l0.299,0.074c0.42,0.104,0.851,0.156,1.284,0.156l0,0
	c2.162,0.051,4.104-1.318,4.782-3.372c0.022-0.086,0.043-0.173,0.06-0.258c0.479-2.45-1.118-4.824-3.568-5.303
	c-0.001,0-0.001,0-0.002,0l-0.299-0.074c-2.554-0.697-5.209,0.712-6.064,3.218c-0.025,0.095-0.045,0.188-0.064,0.279
	c-0.474,2.442,1.122,4.806,3.564,5.28C204.736,8.992,204.739,8.993,204.742,8.993z M121.021,9.185h-0.01
	c0.437,0,0.872-0.053,1.296-0.157l0.291-0.071c0.088-0.017,0.175-0.035,0.262-0.057c2.417-0.618,3.876-3.077,3.26-5.495
	c-0.849-2.507-3.502-3.922-6.057-3.23l-0.319,0.078c-0.095,0.018-0.187,0.04-0.279,0.064c-2.408,0.628-3.851,3.089-3.223,5.497
	C116.921,7.866,118.86,9.234,121.021,9.185z M207.091,296.909l0.316-0.078c0.095-0.017,0.188-0.039,0.279-0.064
	c2.408-0.626,3.852-3.085,3.227-5.493c0-0.001,0-0.001-0.001-0.002c-0.856-2.505-3.512-3.913-6.065-3.215l-0.299,0.071
	c-0.086,0.018-0.174,0.036-0.26,0.06c-2.417,0.618-3.875,3.078-3.258,5.495c0.676,2.057,2.621,3.429,4.786,3.377
	C206.244,297.061,206.673,297.01,207.091,296.909z M122.113,287.998c-2.551-0.697-5.205,0.704-6.07,3.203
	c-0.022,0.095-0.045,0.187-0.064,0.279c-0.475,2.442,1.12,4.807,3.562,5.281c0,0,0.001,0,0.001,0l0.313,0.078
	c0.419,0.102,0.849,0.153,1.28,0.153l0,0c2.162,0.051,4.103-1.318,4.78-3.372c0.025-0.092,0.047-0.187,0.064-0.279
	c0.47-2.443-1.129-4.805-3.573-5.276L122.113,287.998z M48.895,49.471L48.895,49.471c1.301,0.015,2.56-0.46,3.527-1.331l0.207-0.184
	c0.136-0.119,0.264-0.247,0.383-0.383c1.562-1.773,1.39-4.477-0.383-6.039c-2.001-1.77-5.008-1.77-7.009,0l-0.231,0.205
	c-0.137,0.123-0.266,0.254-0.387,0.393c-1.548,1.776-1.363,4.471,0.413,6.019c0.002,0.001,0.003,0.003,0.005,0.004
	C46.375,49.01,47.613,49.479,48.895,49.471z M323.48,182.697c-2.554-0.695-5.207,0.714-6.061,3.219l-0.078,0.269
	c-0.025,0.095-0.046,0.188-0.064,0.279c-0.474,2.442,1.12,4.806,3.562,5.281c0.422,0.104,0.856,0.157,1.291,0.157
	c2.16,0.052,4.1-1.312,4.78-3.363l0.086-0.291c0.022-0.086,0.043-0.174,0.06-0.262C327.528,185.539,325.927,183.171,323.48,182.697z
	 M281.765,248.948c0,0,0.001,0.001,0.001,0.001c1.77,1.562,1.939,4.263,0.377,6.034c-0.117,0.135-0.243,0.262-0.379,0.379
	l-0.24,0.221c-0.955,0.86-2.196,1.334-3.481,1.33l0,0c-1.297,0.01-2.55-0.467-3.512-1.337c0,0-0.001,0-0.001-0.001
	c-1.768-1.564-1.934-4.266-0.37-6.034c0.121-0.137,0.25-0.266,0.387-0.387l0.205-0.205
	C276.754,247.175,279.765,247.175,281.765,248.948z M278.79,252.645l-0.522-0.479l0.486,0.447L278.79,252.645z M317.496,111.409
	c0.679,2.056,2.621,3.426,4.786,3.375l0,0c0.432,0,0.863-0.053,1.282-0.157c0.096-0.018,0.191-0.039,0.278-0.064
	c2.408-0.622,3.855-3.079,3.233-5.487c0-0.001-0.001-0.002-0.001-0.004l-0.084-0.291c-0.861-2.502-3.518-3.904-6.07-3.203
	c-0.088,0.018-0.175,0.036-0.262,0.06c-2.414,0.624-3.866,3.088-3.242,5.502c0,0,0,0.001,0,0.001L317.496,111.409z M52.851,255.04
	c1.561-1.773,1.391-4.476-0.382-6.039l-0.207-0.192c-1.993-1.78-5.002-1.79-7.008-0.025c-1.779,1.559-1.958,4.265-0.4,6.044
	c0.117,0.133,0.241,0.259,0.373,0.376l0.235,0.217c1.999,1.771,5.006,1.771,7.005,0C52.604,255.303,52.732,255.176,52.851,255.04z
	 M5.011,191.557 M274.974,48.299c0.961,0.87,2.214,1.347,3.51,1.337l0,0c1.293,0.01,2.543-0.465,3.503-1.331
	c0.138-0.119,0.268-0.247,0.388-0.384c1.565-1.77,1.399-4.473-0.37-6.038l-0.231-0.205l-0.078-0.07
	c-2.004-1.767-5.013-1.76-7.008,0.018c-1.769,1.573-1.927,4.282-0.354,6.051c0.116,0.131,0.24,0.254,0.372,0.37L274.974,48.299z
	 M6.351,105.369c-2.552-0.704-5.212,0.699-6.072,3.203l-0.086,0.291c-0.021,0.086-0.04,0.173-0.057,0.26
	c-0.475,2.447,1.124,4.816,3.572,5.291c0.419,0.102,0.849,0.153,1.28,0.153l0,0c2.166,0.053,4.111-1.318,4.789-3.377l0.079-0.269
	c0.025-0.092,0.047-0.187,0.065-0.279C10.389,108.201,8.792,105.841,6.351,105.369z M9.72,185.707
	c-0.852-2.507-3.508-3.919-6.063-3.223c-0.088,0.018-0.174,0.036-0.262,0.06c-2.415,0.619-3.872,3.079-3.254,5.495l0.086,0.291
	c0.68,2.05,2.618,3.416,4.777,3.367c0.434,0,0.867-0.052,1.288-0.156c0.096-0.018,0.191-0.039,0.279-0.064
	c2.407-0.629,3.849-3.09,3.22-5.497c0-0.001,0-0.001-0.001-0.002L9.72,185.707z"/>
<path class="st1" d="M154.481,152.861H73.737c0-24.927,18.078-45.134,40.373-45.134S154.481,127.934,154.481,152.861z
	 M172.715,152.861h80.744c0-24.924-18.075-45.134-40.369-45.134l0,0C190.788,107.727,172.715,127.934,172.715,152.861z
	 M163.179,73.254c-15.152,0-27.431,15.325-27.431,34.224H190.6C190.605,88.579,178.321,73.258,163.179,73.254z M213.562,161.379
	H112.803c0,34.715,22.557,62.855,50.379,62.855S213.562,196.093,213.562,161.379z"/>
</svg>
