<?xml version="1.0" encoding="utf-8"?>
<!-- Generator: Adobe Illustrator 24.2.3, SVG Export Plug-In . SVG Version: 6.00 Build 0)  -->
<svg version="1.1" id="Layer_1" xmlns="http://www.w3.org/2000/svg" xmlns:xlink="http://www.w3.org/1999/xlink" x="0px" y="0px"
	 viewBox="0 0 129.5 85.001" style="enable-background:new 0 0 129.5 85.001;" xml:space="preserve">
<style type="text/css">
	.st0{fill:#606060;}
</style>
<path class="st0" d="M81.654,0.498c-0.84-0.557-1.903-0.653-2.829-0.258l-46.437,19.76H3c-1.657,0-3,1.343-3,3v39
	c0,1.657,1.343,3,3,3h29.389l46.437,19.761c0.377,0.16,0.776,0.239,1.175,0.239c0.58,0,1.156-0.168,1.654-0.498
	C82.495,83.948,83,83.008,83,82.001v-79C83,1.994,82.495,1.054,81.654,0.498z M6,26.001h24v33H6V26.001z M77,77.464L36,60.017
	V24.985L77,7.538V77.464z M128.768,54.233c0.977,0.976,0.977,2.559,0,3.535c-0.488,0.488-1.128,0.732-1.768,0.732
	s-1.279-0.244-1.768-0.732L113.5,46.036l-11.732,11.732c-0.488,0.488-1.128,0.732-1.768,0.732s-1.279-0.244-1.768-0.732
	c-0.977-0.976-0.977-2.559,0-3.535l11.732-11.732L98.232,30.768c-0.977-0.976-0.977-2.559,0-3.535c0.977-0.977,2.559-0.977,3.535,0
	L113.5,38.966l11.732-11.732c0.977-0.977,2.559-0.977,3.535,0c0.977,0.976,0.977,2.559,0,3.535l-11.732,11.732L128.768,54.233z"/>
</svg>
