<?xml version="1.0" encoding="utf-8"?>
<!-- Generator: Adobe Illustrator 24.2.3, SVG Export Plug-In . SVG Version: 6.00 Build 0)  -->
<svg version="1.1" id="Layer_1" xmlns="http://www.w3.org/2000/svg" xmlns:xlink="http://www.w3.org/1999/xlink" x="0px" y="0px"
	 viewBox="0 0 130.251 85" style="enable-background:new 0 0 130.251 85;" xml:space="preserve">
<style type="text/css">
	.st0{fill:#606060;}
</style>
<path class="st0" d="M81.655,0.498c-0.841-0.556-1.903-0.652-2.83-0.258L32.389,20H3c-1.657,0-3,1.343-3,3v39c0,1.657,1.343,3,3,3
	h29.389l46.437,19.761C79.202,84.921,79.602,85,80,85c0.58,0,1.156-0.168,1.655-0.498C82.495,83.947,83,83.007,83,82V3
	C83,1.993,82.495,1.053,81.655,0.498z M6,26h24v33H6V26z M77,77.463L36,60.016V24.984L77,7.537V77.463z M102.542,30.458
	c3.217,3.217,4.988,7.493,4.988,12.042s-1.771,8.826-4.988,12.042c-0.585,0.585-1.354,0.878-2.121,0.878
	c-0.768,0-1.536-0.293-2.122-0.879c-1.171-1.171-1.171-3.071,0-4.243c2.083-2.083,3.23-4.853,3.23-7.799s-1.147-5.716-3.23-7.799
	c-1.172-1.172-1.172-3.071,0-4.243C99.471,29.286,101.371,29.287,102.542,30.458z M118.621,70.621
	c-0.585,0.586-1.354,0.879-2.121,0.879s-1.536-0.293-2.121-0.879c-1.172-1.171-1.172-3.071,0-4.242
	c13.167-13.167,13.167-34.591,0-47.758c-1.172-1.171-1.172-3.071,0-4.242c1.171-1.172,3.071-1.172,4.242,0
	C134.127,29.885,134.127,55.115,118.621,70.621z"/>
</svg>
