<?xml version="1.0" encoding="utf-8"?>
<!-- Generator: Adobe Illustrator 24.2.3, SVG Export Plug-In . SVG Version: 6.00 Build 0)  -->
<svg version="1.1" id="Layer_1" xmlns="http://www.w3.org/2000/svg" xmlns:xlink="http://www.w3.org/1999/xlink" x="0px" y="0px"
	 viewBox="0 0 993.256 1200" style="enable-background:new 0 0 993.256 1200;" xml:space="preserve">
<style type="text/css">
	.st0{fill:#00FFAE;}
	.st1{fill:#FFFFFF;}
</style>
<g>
	<path class="st0" d="M495.3,223.536 M890.446,423.387h-0.089c-15.593-0.721-28.836,11.296-29.629,26.885v1.213
		c0.793,15.589,14.036,27.606,29.629,26.885h0.089c15.561,0.756,28.823-11.175,29.709-26.729v-1.522
		C919.273,434.563,906.01,422.629,890.446,423.387z M850.479,604.633c-14.06-7.44-31.459-3.238-40.575,9.797l-0.342,0.524
		c-7.525,11.857-4.014,27.569,7.843,35.094c0.927,0.589,1.892,1.117,2.888,1.581c4.604,2.409,9.724,3.661,14.92,3.648l0,0
		c10.271,0.177,19.938-4.839,25.706-13.339l0.423-0.672c0.581-0.92,1.103-1.878,1.56-2.866c5.894-12.754,0.333-27.871-12.421-33.766
		C850.48,604.634,850.48,604.633,850.479,604.633z M142.521,297.375c4.581,2.379,9.669,3.614,14.831,3.601l0,0
		c10.293,0.183,19.981-4.85,25.748-13.377l0.342-0.541c7.53-11.834,4.04-27.532-7.795-35.062c-0.949-0.604-1.937-1.144-2.958-1.617
		c-14.052-7.47-31.467-3.302-40.614,9.721l-0.423,0.651c-0.579,0.924-1.098,1.884-1.555,2.874
		C124.21,276.375,129.772,291.485,142.521,297.375z M298.026,176.527L298.026,176.527c5.181,0.018,10.288-1.224,14.882-3.618
		l0.621-0.33c0.993-0.456,1.954-0.977,2.878-1.56c11.891-7.474,15.473-23.173,7.998-35.065c-0.003-0.005-0.007-0.011-0.01-0.016
		c-9.114-13.037-26.512-17.243-40.575-9.81l-0.689,0.359c-0.99,0.459-1.949,0.983-2.87,1.568
		c-11.88,7.485-15.442,23.182-7.958,35.062c0.004,0.006,0.008,0.013,0.012,0.019C278.073,171.658,287.744,176.695,298.026,176.527z
		 M496.035,126.789h0.79c1.843,0.193,3.702,0.193,5.545,0c14.808-1.531,25.57-14.777,24.039-29.584s-14.777-25.57-29.584-24.039
		h-0.79c-1.802-0.18-3.617-0.18-5.418,0c-14.796,1.611-25.485,14.911-23.874,29.707
		C468.336,117.507,481.378,128.155,496.035,126.789z M809.87,287.256c5.75,8.575,15.459,13.646,25.782,13.466l0,0
		c5.138,0.005,10.202-1.225,14.763-3.588c0.987-0.454,1.944-0.969,2.866-1.543c11.923-7.434,15.561-23.125,8.127-35.048
		c-0.007-0.011-0.014-0.022-0.021-0.033l-0.465-0.727c-9.154-13.018-26.573-17.174-40.618-9.692
		c-1.001,0.466-1.971,0.995-2.904,1.585c-11.848,7.526-15.357,23.228-7.84,35.081L809.87,287.256z M157.775,654.976L157.775,654.976
		c5.187,0.026,10.302-1.207,14.907-3.593c1.002-0.467,1.973-0.996,2.908-1.585c11.85-7.523,15.366-23.222,7.857-35.081l-0.346-0.541
		c-9.111-13.042-26.513-17.249-40.575-9.81c-0.991,0.459-1.952,0.98-2.878,1.56c-11.891,7.471-15.474,23.167-8.003,35.058
		c0.005,0.008,0.01,0.016,0.014,0.023l0.423,0.651C137.856,650.142,147.514,655.148,157.775,654.976z M679.403,172.432l0.558,0.292
		c4.602,2.407,9.719,3.658,14.912,3.648l0,0c10.272,0.189,19.946-4.818,25.723-13.314c7.528-11.857,4.019-27.573-7.839-35.101
		c-0.925-0.587-1.887-1.114-2.88-1.577l-0.778-0.397c-14.067-7.429-31.464-3.217-40.575,9.823c-0.578,0.92-1.095,1.878-1.547,2.866
		c-5.893,12.752-0.332,27.867,12.42,33.759C679.399,172.43,679.401,172.431,679.403,172.432z M496.791,774.957h-0.769
		c-14.804-1.515-28.033,9.258-29.547,24.062c-0.185,1.807-0.187,3.628-0.005,5.436c1.483,14.807,14.688,25.609,29.496,24.126
		c0,0,0.001,0,0.002,0h0.845c14.808,1.524,28.047-9.245,29.57-24.053c1.524-14.808-9.245-28.047-24.053-29.57
		c-1.834-0.189-3.683-0.189-5.518,0H496.791z M132.436,450.518c-1.53-16.409-16.072-28.471-32.481-26.941
		c-14.291,1.332-25.608,12.65-26.941,26.941v0.689c0.844,15.588,14.121,27.567,29.713,26.809l0,0
		c15.6,0.765,28.883-11.226,29.713-26.822L132.436,450.518z M283.779,775.583c4.578,2.372,9.662,3.605,14.818,3.593l0,0
		c10.317,0.181,20.023-4.879,25.782-13.441c0.583-0.919,1.102-1.877,1.555-2.866c5.887-12.755,0.32-27.867-12.435-33.754
		l-0.63-0.309c-14.052-7.472-31.468-3.303-40.614,9.721c-0.59,0.937-1.12,1.911-1.585,2.916
		c-5.912,12.73-0.386,27.843,12.344,33.755c0.005,0.002,0.01,0.005,0.015,0.007L283.779,775.583z M720.591,738.769
		c-9.13-13.034-26.541-17.223-40.601-9.768l-0.558,0.292c-0.987,0.454-1.944,0.969-2.866,1.543
		c-11.92,7.44-15.555,23.133-8.119,35.056c5.754,8.571,15.461,13.641,25.782,13.466l0,0c5.138,0.02,10.205-1.199,14.772-3.555
		l0.765-0.393c0.988-0.461,1.946-0.982,2.87-1.56C724.52,766.359,728.082,750.653,720.591,738.769z M621.481,27.298l0.909,0.224
		c1.275,0.315,2.584,0.474,3.897,0.473l0,0c6.564,0.154,12.456-4.002,14.514-10.237c0.068-0.262,0.131-0.524,0.182-0.782
		c1.454-7.436-3.395-14.644-10.831-16.098c-0.002,0-0.004-0.001-0.006-0.001l-0.909-0.224c-7.752-2.115-15.813,2.162-18.407,9.768
		c-0.076,0.287-0.135,0.571-0.195,0.845c-1.438,7.413,3.406,14.589,10.82,16.026C621.464,27.295,621.473,27.297,621.481,27.298z
		 M367.352,27.882h-0.03c1.326,0,2.648-0.16,3.935-0.478l0.883-0.216c0.266-0.051,0.532-0.106,0.795-0.173
		c7.337-1.875,11.766-9.341,9.895-16.678c-2.578-7.61-10.629-11.905-18.386-9.806l-0.968,0.237
		c-0.287,0.055-0.566,0.123-0.845,0.194c-7.309,1.908-11.688,9.377-9.785,16.687C354.907,23.877,360.793,28.03,367.352,27.882z
		 M628.611,901.249l0.959-0.237c0.287-0.051,0.571-0.118,0.845-0.194c7.309-1.899,11.694-9.364,9.795-16.672
		c-0.001-0.002-0.001-0.004-0.002-0.006c-2.597-7.604-10.66-11.878-18.411-9.759l-0.909,0.216c-0.262,0.055-0.528,0.11-0.79,0.182
		c-7.335,1.877-11.762,9.342-9.89,16.678c2.053,6.245,7.955,10.409,14.527,10.25C626.041,901.709,627.342,901.556,628.611,901.249z
		 M370.665,874.198c-7.743-2.115-15.799,2.136-18.424,9.721c-0.068,0.287-0.135,0.566-0.195,0.845
		c-1.441,7.413,3.4,14.59,10.813,16.031c0.001,0,0.002,0,0.003,0.001l0.951,0.237c1.272,0.309,2.576,0.465,3.884,0.465l0,0
		c6.563,0.155,12.455-4.002,14.51-10.237c0.076-0.279,0.144-0.566,0.194-0.845c1.427-7.417-3.428-14.587-10.845-16.015
		L370.665,874.198z M148.417,150.166L148.417,150.166c3.949,0.045,7.771-1.398,10.706-4.041l0.63-0.558
		c0.412-0.362,0.8-0.75,1.162-1.162c4.741-5.383,4.22-13.59-1.162-18.331c-6.075-5.371-15.202-5.371-21.277,0l-0.702,0.621
		c-0.416,0.372-0.809,0.77-1.175,1.192c-4.699,5.392-4.138,13.572,1.253,18.272c0.005,0.004,0.01,0.008,0.014,0.013
		C140.767,148.766,144.527,150.189,148.417,150.166z M981.902,554.565c-7.751-2.11-15.807,2.169-18.399,9.772l-0.237,0.816
		c-0.076,0.287-0.139,0.571-0.195,0.845c-1.439,7.412,3.401,14.588,10.812,16.032c1.282,0.317,2.598,0.478,3.918,0.478
		c6.555,0.159,12.445-3.984,14.51-10.207l0.262-0.883c0.068-0.262,0.131-0.528,0.182-0.795
		C994.191,563.191,989.332,556.003,981.902,554.565z M855.281,755.667c0.001,0.001,0.003,0.002,0.004,0.004
		c5.374,4.741,5.886,12.941,1.145,18.315c-0.354,0.411-0.739,0.795-1.149,1.15l-0.727,0.672c-2.899,2.61-6.665,4.049-10.567,4.036
		l0,0c-3.936,0.031-7.74-1.417-10.659-4.057c-0.001-0.001-0.002-0.001-0.002-0.002c-5.368-4.748-5.87-12.949-1.122-18.316
		c0.367-0.416,0.759-0.808,1.175-1.175l0.621-0.621C840.07,750.285,849.208,750.283,855.281,755.667z M846.248,766.889l-1.585-1.454
		l1.475,1.357L846.248,766.889z M963.74,338.175c2.06,6.24,7.957,10.4,14.527,10.245l0,0c1.312,0,2.619-0.16,3.893-0.478
		c0.292-0.055,0.579-0.118,0.845-0.194c7.309-1.889,11.702-9.346,9.813-16.655c0-0.004-0.002-0.007-0.003-0.011l-0.254-0.883
		c-2.613-7.595-10.68-11.852-18.424-9.721c-0.266,0.055-0.532,0.11-0.795,0.182c-7.329,1.895-11.735,9.372-9.84,16.701
		c0,0.001,0,0.002,0,0.002L963.74,338.175z M160.425,774.158c4.739-5.383,4.221-13.587-1.158-18.331l-0.63-0.583
		c-6.051-5.402-15.183-5.435-21.273-0.076c-5.401,4.731-5.945,12.945-1.214,18.346c0.354,0.404,0.732,0.786,1.133,1.143l0.714,0.659
		c6.068,5.377,15.196,5.377,21.264,0C159.675,774.956,160.063,774.569,160.425,774.158z M15.211,581.459 M834.667,146.607
		c2.917,2.64,6.72,4.089,10.655,4.058l0,0c3.925,0.031,7.72-1.411,10.634-4.041c0.42-0.36,0.814-0.75,1.179-1.167
		c4.75-5.371,4.246-13.576-1.124-18.327l-0.702-0.621l-0.237-0.211c-6.084-5.365-15.216-5.341-21.273,0.055
		c-5.368,4.775-5.849,12.999-1.073,18.367c0.353,0.397,0.73,0.771,1.128,1.122L834.667,146.607z M19.277,319.839
		c-7.747-2.135-15.819,2.122-18.432,9.721l-0.262,0.883c-0.063,0.262-0.123,0.524-0.173,0.79
		c-1.441,7.429,3.413,14.619,10.841,16.061c1.272,0.309,2.576,0.466,3.884,0.465l0,0c6.575,0.162,12.48-4.002,14.535-10.249
		l0.241-0.816c0.076-0.279,0.144-0.566,0.199-0.845C31.534,328.438,26.687,321.273,19.277,319.839z M29.506,563.703
		c-2.587-7.61-10.647-11.896-18.403-9.785c-0.266,0.055-0.528,0.11-0.795,0.182c-7.332,1.88-11.753,9.346-9.877,16.678l0.262,0.883
		c2.065,6.222,7.948,10.368,14.502,10.22c1.317,0.001,2.63-0.158,3.91-0.473c0.292-0.055,0.579-0.118,0.845-0.194
		c7.306-1.908,11.682-9.379,9.774-16.685c-0.001-0.002-0.001-0.004-0.002-0.006L29.506,563.703z"/>
	<path class="st1" d="M468.917,464.001H223.824c0-75.665,54.874-137.002,122.551-137.002S468.917,388.336,468.917,464.001z
		 M524.265,464.001h245.093c0-75.656-54.866-137.002-122.538-137.002l0,0C579.126,326.999,524.265,388.336,524.265,464.001z
		 M495.321,222.357c-45.994,0-83.264,46.518-83.264,103.886h166.499C578.568,268.875,541.281,222.369,495.321,222.357z
		 M648.253,489.855H342.406c0,105.374,68.471,190.794,152.923,190.794S648.253,595.229,648.253,489.855z M130.454,1056.943
		c-0.657-7.715,5.064-14.501,12.779-15.158c0.869-0.074,1.743-0.067,2.61,0.022c3.379-0.073,6.75,0.323,10.02,1.178l2.509,0.723
		v-32.038l-1.156-0.548c-5.599-1.924-11.497-2.834-17.416-2.69c-28.537,0-46.972,18.829-46.972,47.98v12.118H72.208v32.602h20.621
		v95.045h37.631v-95.045h45.602v95.045h37.127V1068.53h-82.723L130.454,1056.943z M194.623,1006.947
		c-12.536,0.078-22.642,10.292-22.587,22.828c0.195,12.473,10.464,22.427,22.937,22.232c12.199-0.191,22.041-10.033,22.232-22.232
		C217.259,1017.241,207.157,1007.029,194.623,1006.947z M311.054,1067.533c-8.93,0-24.023,2.01-33.237,14.211v-13.203h-36.371
		v127.646h37.374v-58.531c0-21.913,10.08-32.991,29.967-32.991c3.251,0.001,6.494,0.325,9.68,0.97l2.339,0.466v-37.856l-1.77-0.181
		C316.387,1067.747,313.723,1067.57,311.054,1067.533z M389.012,1064.788c-39.318,0-62.815,34.109-62.815,67.088
		c0,44.698,33.117,68.096,65.834,68.096c34.114,0,52.439-20.993,58.219-40.639l0.548-1.879l-31.561-9.385l-0.636,1.737
		c-3.629,11.246-14.518,18.519-26.296,17.564c-14.461,0.562-27.004-9.907-29.035-24.236h86.383l1.912-0.033l0.126-2.882
		c0.131-1.841,0.433-5.665,0.433-9.352C452.085,1090.109,427.914,1064.788,389.012,1064.788z M364.052,1116.334
		c2.217-12.211,13.078-20.931,25.48-20.456c17.115,0,24.329,10.217,25.535,20.456H364.052z M560.064,1068.552h-45.361v-11.609
		c-0.657-7.715,5.064-14.501,12.779-15.158c0.869-0.074,1.743-0.067,2.61,0.022c3.378-0.073,6.75,0.323,10.02,1.178l2.509,0.723
		v-32.038l-1.151-0.548c-5.6-1.923-11.497-2.834-17.416-2.69c-28.543,0-46.977,18.829-46.977,47.98v12.118h-20.621v32.602h20.621
		v95.045h37.625v-95.045h45.361v95.045h37.379V1010.19h-37.379L560.064,1068.552z M644.015,1007.188
		c-12.476,0-22.59,10.114-22.59,22.59c0,12.476,10.114,22.59,22.59,22.59l0,0c12.476,0,22.59-10.114,22.59-22.59
		C666.604,1017.302,656.491,1007.188,644.015,1007.188z M625.448,1196.203h37.374v-127.652h-37.374V1196.203z M744.351,1064.788
		c-39.324,0-62.82,34.109-62.82,67.088c0,44.698,33.122,68.096,65.839,68.096c34.109,0,52.434-20.993,58.203-40.639l0.548-1.879
		l-31.561-9.385l-0.636,1.737c-3.628,11.247-14.517,18.521-26.296,17.564c-14.461,0.562-27.004-9.907-29.035-24.236h86.372
		l1.912-0.033l0.126-2.882c0.142-1.841,0.433-5.665,0.433-9.352C807.418,1090.109,783.253,1064.788,744.351,1064.788z
		 M719.391,1116.334c2.204-12.207,13.057-20.93,25.453-20.456c17.142,0,24.346,10.217,25.54,20.456H719.391z M880.807,1117.38
		l-17.668-3.78c-3.621-0.668-9.697-2.739-9.697-9.132c0-5.807,6.092-10.359,13.871-10.359c9.179-0.891,17.376,5.744,18.418,14.907
		l0.29,2.115l31.72-7.122l-0.197-1.753c-1.572-13.91-13.981-37.445-50.483-37.445c-27.041,0-48.21,18.627-48.21,42.447
		c0,19.624,13.219,33.791,36.228,38.896l16.386,3.775c7.801,1.643,11.768,5.062,11.768,10.151c0,6.289-5.643,10.349-14.375,10.349
		c-14.304,0-20.073-9.176-20.675-17.038l-0.175-2.257l-32.596,7.122l0.186,1.753c1.485,13.833,14.578,39.992,53.502,39.992
		c34.35,0,49.996-22.138,49.996-42.704C919.073,1137.229,904.753,1122.322,880.807,1117.38z"/>
</g>
</svg>
